<?xml version="1.0" encoding="UTF-8" standalone="no"?>
<!DOCTYPE svg PUBLIC "-//W3C//DTD SVG 1.1//EN"
 "http://www.w3.org/Graphics/SVG/1.1/DTD/svg11.dtd">
<!-- Generated by graphviz version 2.43.0 (0)
 -->
<!-- Title: %3 Pages: 1 -->
<svg width="2292pt" height="409pt"
 viewBox="0.00 0.00 2292.00 409.00" xmlns="http://www.w3.org/2000/svg" xmlns:xlink="http://www.w3.org/1999/xlink">
<g id="graph0" class="graph" transform="scale(1 1) rotate(0) translate(4 405)">
<title>%3</title>
<polygon fill="#ffffff" stroke="transparent" points="-4,4 -4,-405 2288,-405 2288,4 -4,4"/>
<!-- Arduino -->
<g id="node1" class="node">
<title>Arduino</title>
<polygon fill="#ffffff" stroke="black" points="843,-241 699,-241 699,-103 843,-103 843,-241"/>
<polygon fill="none" stroke="black" points="699,-218 699,-241 843,-241 843,-218 699,-218"/>
<text text-anchor="start" x="747.5" y="-225.8" font-family="arial" font-size="14.00">Arduino</text>
<polygon fill="none" stroke="black" points="699,-195 699,-218 754,-218 754,-195 699,-195"/>
<text text-anchor="start" x="703" y="-202.8" font-family="arial" font-size="14.00">Arduino</text>
<polygon fill="none" stroke="black" points="754,-195 754,-218 804,-218 804,-195 754,-195"/>
<text text-anchor="start" x="758" y="-202.8" font-family="arial" font-size="14.00">female</text>
<polygon fill="none" stroke="black" points="804,-195 804,-218 843,-218 843,-195 804,-195"/>
<text text-anchor="start" x="808" y="-202.8" font-family="arial" font-size="14.00">4&#45;pin</text>
<polygon fill="none" stroke="black" points="699,-172 699,-195 741,-195 741,-172 699,-172"/>
<text text-anchor="start" x="716" y="-179.8" font-family="arial" font-size="14.00">1</text>
<polygon fill="none" stroke="black" points="741,-172 741,-195 802,-195 802,-172 741,-172"/>
<text text-anchor="start" x="758" y="-179.8" font-family="arial" font-size="14.00">SCL</text>
<polygon fill="none" stroke="black" points="802,-172 802,-195 843,-195 843,-172 802,-172"/>
<text text-anchor="start" x="818.5" y="-179.8" font-family="arial" font-size="14.00">1</text>
<polygon fill="none" stroke="black" points="699,-149 699,-172 741,-172 741,-149 699,-149"/>
<text text-anchor="start" x="716" y="-156.8" font-family="arial" font-size="14.00">2</text>
<polygon fill="none" stroke="black" points="741,-149 741,-172 802,-172 802,-149 741,-149"/>
<text text-anchor="start" x="757.5" y="-156.8" font-family="arial" font-size="14.00">SDA</text>
<polygon fill="none" stroke="black" points="802,-149 802,-172 843,-172 843,-149 802,-149"/>
<text text-anchor="start" x="818.5" y="-156.8" font-family="arial" font-size="14.00">2</text>
<polygon fill="none" stroke="black" points="699,-126 699,-149 741,-149 741,-126 699,-126"/>
<text text-anchor="start" x="716" y="-133.8" font-family="arial" font-size="14.00">3</text>
<polygon fill="none" stroke="black" points="741,-126 741,-149 802,-149 802,-126 741,-126"/>
<text text-anchor="start" x="763" y="-133.8" font-family="arial" font-size="14.00">A3</text>
<polygon fill="none" stroke="black" points="802,-126 802,-149 843,-149 843,-126 802,-126"/>
<text text-anchor="start" x="818.5" y="-133.8" font-family="arial" font-size="14.00">3</text>
<polygon fill="none" stroke="black" points="699,-103 699,-126 741,-126 741,-103 699,-103"/>
<text text-anchor="start" x="716" y="-110.8" font-family="arial" font-size="14.00">4</text>
<polygon fill="none" stroke="black" points="741,-103 741,-126 802,-126 802,-103 741,-103"/>
<text text-anchor="start" x="763" y="-110.8" font-family="arial" font-size="14.00">A4</text>
<polygon fill="none" stroke="black" points="802,-103 802,-126 843,-126 843,-103 802,-103"/>
<text text-anchor="start" x="818.5" y="-110.8" font-family="arial" font-size="14.00">4</text>
</g>
<!-- w_i2c_1 -->
<g id="node6" class="node">
<title>w_i2c_1</title>
<polygon fill="#ffffff" stroke="black" points="1242,-296 987,-296 987,-112 1242,-112 1242,-296"/>
<polygon fill="none" stroke="black" points="987.5,-273 987.5,-296 1242.5,-296 1242.5,-273 987.5,-273"/>
<text text-anchor="start" x="1090" y="-280.8" font-family="arial" font-size="14.00">w_i2c_1</text>
<polygon fill="none" stroke="black" points="987.5,-250 987.5,-273 1242.5,-273 1242.5,-250 987.5,-250"/>
<text text-anchor="start" x="1107.5" y="-257.8" font-family="arial" font-size="14.00">4x</text>
<text text-anchor="start" x="1032.5" y="-236.8" font-family="arial" font-size="14.00"> </text>
<text text-anchor="start" x="1085.5" y="-217.8" font-family="arial" font-size="14.00"> &#160;&#160;&#160;&#160;1:RD &#160;&#160;&#160;</text>
<polygon fill="#000000" stroke="transparent" points="987.5,-210 987.5,-212 1242.5,-212 1242.5,-210 987.5,-210"/>
<polygon fill="#ff0000" stroke="transparent" points="987.5,-208 987.5,-210 1242.5,-210 1242.5,-208 987.5,-208"/>
<polygon fill="#000000" stroke="transparent" points="987.5,-206 987.5,-208 1242.5,-208 1242.5,-206 987.5,-206"/>
<text text-anchor="start" x="990.5" y="-192.8" font-family="arial" font-size="14.00">Arduino:1:SCL</text>
<text text-anchor="start" x="1084" y="-192.8" font-family="arial" font-size="14.00"> &#160;&#160;&#160;&#160;2:OG &#160;&#160;&#160;</text>
<text text-anchor="start" x="1157.5" y="-192.8" font-family="arial" font-size="14.00">i2cBus:2:SCL</text>
<polygon fill="#000000" stroke="transparent" points="987.5,-185 987.5,-187 1242.5,-187 1242.5,-185 987.5,-185"/>
<polygon fill="#ff8000" stroke="transparent" points="987.5,-183 987.5,-185 1242.5,-185 1242.5,-183 987.5,-183"/>
<polygon fill="#000000" stroke="transparent" points="987.5,-181 987.5,-183 1242.5,-183 1242.5,-181 987.5,-181"/>
<text text-anchor="start" x="989.5" y="-167.8" font-family="arial" font-size="14.00">Arduino:2:SDA</text>
<text text-anchor="start" x="1083.5" y="-167.8" font-family="arial" font-size="14.00"> &#160;&#160;&#160;&#160;3:WH &#160;&#160;&#160;</text>
<text text-anchor="start" x="1156.5" y="-167.8" font-family="arial" font-size="14.00">i2cBus:3:SDA</text>
<polygon fill="#000000" stroke="transparent" points="987.5,-160 987.5,-162 1242.5,-162 1242.5,-160 987.5,-160"/>
<polygon fill="#ffffff" stroke="transparent" points="987.5,-158 987.5,-160 1242.5,-160 1242.5,-158 987.5,-158"/>
<polygon fill="#000000" stroke="transparent" points="987.5,-156 987.5,-158 1242.5,-158 1242.5,-156 987.5,-156"/>
<text text-anchor="start" x="1084" y="-142.8" font-family="arial" font-size="14.00"> &#160;&#160;&#160;&#160;4:OG &#160;&#160;&#160;</text>
<polygon fill="#000000" stroke="transparent" points="987.5,-135 987.5,-137 1242.5,-137 1242.5,-135 987.5,-135"/>
<polygon fill="#ff8000" stroke="transparent" points="987.5,-133 987.5,-135 1242.5,-135 1242.5,-133 987.5,-133"/>
<polygon fill="#000000" stroke="transparent" points="987.5,-131 987.5,-133 1242.5,-133 1242.5,-131 987.5,-131"/>
<text text-anchor="start" x="1032.5" y="-117.8" font-family="arial" font-size="14.00"> </text>
</g>
<!-- Arduino&#45;&#45;w_i2c_1 -->
<g id="edge1" class="edge">
<title>Arduino:e&#45;&#45;w_i2c_1:w</title>
<path fill="none" stroke="#000000" stroke-width="2" d="M843,-182C907,-182 923,-182 987,-182"/>
<path fill="none" stroke="#ff8000" stroke-width="2" d="M843,-184C907,-184 923,-184 987,-184"/>
<path fill="none" stroke="#000000" stroke-width="2" d="M843,-186C907,-186 923,-186 987,-186"/>
</g>
<!-- Arduino&#45;&#45;w_i2c_1 -->
<g id="edge3" class="edge">
<title>Arduino:e&#45;&#45;w_i2c_1:w</title>
<path fill="none" stroke="#000000" stroke-width="2" d="M843,-158C906.88,-158 922.87,-157 987,-157"/>
<path fill="none" stroke="#ffffff" stroke-width="2" d="M843,-160C907,-160 923,-159 987,-159"/>
<path fill="none" stroke="#000000" stroke-width="2" d="M843,-162C907.13,-162 923.12,-161 987,-161"/>
</g>
<!-- i2cBus -->
<g id="node2" class="node">
<title>i2cBus</title>
<polygon fill="#ffffff" stroke="black" points="1568,-264 1386,-264 1386,-126 1568,-126 1568,-264"/>
<polygon fill="none" stroke="black" points="1386,-241 1386,-264 1568,-264 1568,-241 1386,-241"/>
<text text-anchor="start" x="1456.5" y="-248.8" font-family="arial" font-size="14.00">i2cBus</text>
<polygon fill="none" stroke="black" points="1386,-218 1386,-241 1479,-241 1479,-218 1386,-218"/>
<text text-anchor="start" x="1390" y="-225.8" font-family="arial" font-size="14.00">Molex KK 254</text>
<polygon fill="none" stroke="black" points="1479,-218 1479,-241 1529,-241 1529,-218 1479,-218"/>
<text text-anchor="start" x="1483" y="-225.8" font-family="arial" font-size="14.00">female</text>
<polygon fill="none" stroke="black" points="1529,-218 1529,-241 1568,-241 1568,-218 1529,-218"/>
<text text-anchor="start" x="1533" y="-225.8" font-family="arial" font-size="14.00">4&#45;pin</text>
<polygon fill="none" stroke="black" points="1386,-195 1386,-218 1439,-218 1439,-195 1386,-195"/>
<text text-anchor="start" x="1408.5" y="-202.8" font-family="arial" font-size="14.00">1</text>
<polygon fill="none" stroke="black" points="1439,-195 1439,-218 1515,-218 1515,-195 1439,-195"/>
<text text-anchor="start" x="1469.5" y="-202.8" font-family="arial" font-size="14.00">5v</text>
<polygon fill="none" stroke="black" points="1515,-195 1515,-218 1568,-218 1568,-195 1515,-195"/>
<text text-anchor="start" x="1537.5" y="-202.8" font-family="arial" font-size="14.00">1</text>
<polygon fill="none" stroke="black" points="1386,-172 1386,-195 1439,-195 1439,-172 1386,-172"/>
<text text-anchor="start" x="1408.5" y="-179.8" font-family="arial" font-size="14.00">2</text>
<polygon fill="none" stroke="black" points="1439,-172 1439,-195 1515,-195 1515,-172 1439,-172"/>
<text text-anchor="start" x="1463.5" y="-179.8" font-family="arial" font-size="14.00">SCL</text>
<polygon fill="none" stroke="black" points="1515,-172 1515,-195 1568,-195 1568,-172 1515,-172"/>
<text text-anchor="start" x="1537.5" y="-179.8" font-family="arial" font-size="14.00">2</text>
<polygon fill="none" stroke="black" points="1386,-149 1386,-172 1439,-172 1439,-149 1386,-149"/>
<text text-anchor="start" x="1408.5" y="-156.8" font-family="arial" font-size="14.00">3</text>
<polygon fill="none" stroke="black" points="1439,-149 1439,-172 1515,-172 1515,-149 1439,-149"/>
<text text-anchor="start" x="1463" y="-156.8" font-family="arial" font-size="14.00">SDA</text>
<polygon fill="none" stroke="black" points="1515,-149 1515,-172 1568,-172 1568,-149 1515,-149"/>
<text text-anchor="start" x="1537.5" y="-156.8" font-family="arial" font-size="14.00">3</text>
<polygon fill="none" stroke="black" points="1386,-126 1386,-149 1439,-149 1439,-126 1386,-126"/>
<text text-anchor="start" x="1408.5" y="-133.8" font-family="arial" font-size="14.00">4</text>
<polygon fill="none" stroke="black" points="1439,-126 1439,-149 1515,-149 1515,-126 1439,-126"/>
<text text-anchor="start" x="1461.5" y="-133.8" font-family="arial" font-size="14.00">GND</text>
<polygon fill="none" stroke="black" points="1515,-126 1515,-149 1568,-149 1568,-126 1515,-126"/>
<text text-anchor="start" x="1537.5" y="-133.8" font-family="arial" font-size="14.00">4</text>
</g>
<!-- w_i2c_2 -->
<g id="node7" class="node">
<title>w_i2c_2</title>
<polygon fill="#ffffff" stroke="black" points="1996,-401 1712,-401 1712,-217 1996,-217 1996,-401"/>
<polygon fill="none" stroke="black" points="1712,-378 1712,-401 1996,-401 1996,-378 1712,-378"/>
<text text-anchor="start" x="1829" y="-385.8" font-family="arial" font-size="14.00">w_i2c_2</text>
<polygon fill="none" stroke="black" points="1712,-355 1712,-378 1996,-378 1996,-355 1712,-355"/>
<text text-anchor="start" x="1846.5" y="-362.8" font-family="arial" font-size="14.00">4x</text>
<text text-anchor="start" x="1755.5" y="-341.8" font-family="arial" font-size="14.00"> </text>
<text text-anchor="start" x="1722.5" y="-322.8" font-family="arial" font-size="14.00">i2cBus:1:5v</text>
<text text-anchor="start" x="1807" y="-322.8" font-family="arial" font-size="14.00"> &#160;&#160;&#160;&#160;1:RD &#160;&#160;&#160;</text>
<text text-anchor="start" x="1884.5" y="-322.8" font-family="arial" font-size="14.00">domeServo:6:V+</text>
<polygon fill="#000000" stroke="transparent" points="1712,-315 1712,-317 1996,-317 1996,-315 1712,-315"/>
<polygon fill="#ff0000" stroke="transparent" points="1712,-313 1712,-315 1996,-315 1996,-313 1712,-313"/>
<polygon fill="#000000" stroke="transparent" points="1712,-311 1712,-313 1996,-313 1996,-311 1712,-311"/>
<text text-anchor="start" x="1716.5" y="-297.8" font-family="arial" font-size="14.00">i2cBus:2:SCL</text>
<text text-anchor="start" x="1805.5" y="-297.8" font-family="arial" font-size="14.00"> &#160;&#160;&#160;&#160;2:OG &#160;&#160;&#160;</text>
<text text-anchor="start" x="1880" y="-297.8" font-family="arial" font-size="14.00">domeServo:3:SCL</text>
<polygon fill="#000000" stroke="transparent" points="1712,-290 1712,-292 1996,-292 1996,-290 1712,-290"/>
<polygon fill="#ff8000" stroke="transparent" points="1712,-288 1712,-290 1996,-290 1996,-288 1712,-288"/>
<polygon fill="#000000" stroke="transparent" points="1712,-286 1712,-288 1996,-288 1996,-286 1712,-286"/>
<text text-anchor="start" x="1715.5" y="-272.8" font-family="arial" font-size="14.00">i2cBus:3:SDA</text>
<text text-anchor="start" x="1805" y="-272.8" font-family="arial" font-size="14.00"> &#160;&#160;&#160;&#160;3:WH &#160;&#160;&#160;</text>
<text text-anchor="start" x="1879.5" y="-272.8" font-family="arial" font-size="14.00">domeServo:4:SDA</text>
<polygon fill="#000000" stroke="transparent" points="1712,-265 1712,-267 1996,-267 1996,-265 1712,-265"/>
<polygon fill="#ffffff" stroke="transparent" points="1712,-263 1712,-265 1996,-265 1996,-263 1712,-263"/>
<polygon fill="#000000" stroke="transparent" points="1712,-261 1712,-263 1996,-263 1996,-261 1712,-261"/>
<text text-anchor="start" x="1714" y="-247.8" font-family="arial" font-size="14.00">i2cBus:4:GND</text>
<text text-anchor="start" x="1805.5" y="-247.8" font-family="arial" font-size="14.00"> &#160;&#160;&#160;&#160;4:OG &#160;&#160;&#160;</text>
<text text-anchor="start" x="1878" y="-247.8" font-family="arial" font-size="14.00">domeServo:1:GND</text>
<polygon fill="#000000" stroke="transparent" points="1712,-240 1712,-242 1996,-242 1996,-240 1712,-240"/>
<polygon fill="#ff8000" stroke="transparent" points="1712,-238 1712,-240 1996,-240 1996,-238 1712,-238"/>
<polygon fill="#000000" stroke="transparent" points="1712,-236 1712,-238 1996,-238 1996,-236 1712,-236"/>
<text text-anchor="start" x="1755.5" y="-222.8" font-family="arial" font-size="14.00"> </text>
</g>
<!-- i2cBus&#45;&#45;w_i2c_2 -->
<g id="edge5" class="edge">
<title>i2cBus:e&#45;&#45;w_i2c_2:w</title>
<path fill="none" stroke="#000000" stroke-width="2" d="M1568,-205C1649.71,-207.29 1634.25,-314.29 1712,-312"/>
<path fill="none" stroke="#ff0000" stroke-width="2" d="M1568,-207C1647.73,-207 1632.27,-314 1712,-314"/>
<path fill="none" stroke="#000000" stroke-width="2" d="M1568,-209C1645.75,-206.71 1630.29,-313.71 1712,-316"/>
</g>
<!-- i2cBus&#45;&#45;w_i2c_2 -->
<g id="edge7" class="edge">
<title>i2cBus:e&#45;&#45;w_i2c_2:w</title>
<path fill="none" stroke="#000000" stroke-width="2" d="M1568,-181C1649.45,-183.28 1634.51,-289.28 1712,-287"/>
<path fill="none" stroke="#ff8000" stroke-width="2" d="M1568,-183C1647.47,-183 1632.53,-289 1712,-289"/>
<path fill="none" stroke="#000000" stroke-width="2" d="M1568,-185C1645.49,-182.72 1630.55,-288.72 1712,-291"/>
</g>
<!-- i2cBus&#45;&#45;w_i2c_2 -->
<g id="edge9" class="edge">
<title>i2cBus:e&#45;&#45;w_i2c_2:w</title>
<path fill="none" stroke="#000000" stroke-width="2" d="M1568,-158C1648.93,-160.26 1635.04,-264.26 1712,-262"/>
<path fill="none" stroke="#ffffff" stroke-width="2" d="M1568,-160C1646.95,-160 1633.05,-264 1712,-264"/>
<path fill="none" stroke="#000000" stroke-width="2" d="M1568,-162C1644.96,-159.74 1631.07,-263.74 1712,-266"/>
</g>
<!-- i2cBus&#45;&#45;w_i2c_2 -->
<g id="edge11" class="edge">
<title>i2cBus:e&#45;&#45;w_i2c_2:w</title>
<path fill="none" stroke="#000000" stroke-width="2" d="M1568,-135C1648.41,-137.25 1635.56,-239.25 1712,-237"/>
<path fill="none" stroke="#ff8000" stroke-width="2" d="M1568,-137C1646.43,-137 1633.57,-239 1712,-239"/>
<path fill="none" stroke="#000000" stroke-width="2" d="M1568,-139C1644.44,-136.75 1631.59,-238.75 1712,-241"/>
</g>
<!-- w_i2c_3 -->
<g id="node8" class="node">
<title>w_i2c_3</title>
<polygon fill="#ffffff" stroke="black" points="1993.5,-193 1714.5,-193 1714.5,-9 1993.5,-9 1993.5,-193"/>
<polygon fill="none" stroke="black" points="1715,-170 1715,-193 1994,-193 1994,-170 1715,-170"/>
<text text-anchor="start" x="1829.5" y="-177.8" font-family="arial" font-size="14.00">w_i2c_3</text>
<polygon fill="none" stroke="black" points="1715,-147 1715,-170 1994,-170 1994,-147 1715,-147"/>
<text text-anchor="start" x="1847" y="-154.8" font-family="arial" font-size="14.00">4x</text>
<text text-anchor="start" x="1758.5" y="-133.8" font-family="arial" font-size="14.00"> </text>
<text text-anchor="start" x="1725.5" y="-114.8" font-family="arial" font-size="14.00">i2cBus:1:5v</text>
<text text-anchor="start" x="1810" y="-114.8" font-family="arial" font-size="14.00"> &#160;&#160;&#160;&#160;1:RD &#160;&#160;&#160;</text>
<text text-anchor="start" x="1888" y="-114.8" font-family="arial" font-size="14.00">bodyServo:6:V+</text>
<polygon fill="#000000" stroke="transparent" points="1715,-107 1715,-109 1994,-109 1994,-107 1715,-107"/>
<polygon fill="#ff0000" stroke="transparent" points="1715,-105 1715,-107 1994,-107 1994,-105 1715,-105"/>
<polygon fill="#000000" stroke="transparent" points="1715,-103 1715,-105 1994,-105 1994,-103 1715,-103"/>
<text text-anchor="start" x="1719.5" y="-89.8" font-family="arial" font-size="14.00">i2cBus:2:SCL</text>
<text text-anchor="start" x="1808.5" y="-89.8" font-family="arial" font-size="14.00"> &#160;&#160;&#160;&#160;2:OG &#160;&#160;&#160;</text>
<text text-anchor="start" x="1883.5" y="-89.8" font-family="arial" font-size="14.00">bodyServo:3:SCL</text>
<polygon fill="#000000" stroke="transparent" points="1715,-82 1715,-84 1994,-84 1994,-82 1715,-82"/>
<polygon fill="#ff8000" stroke="transparent" points="1715,-80 1715,-82 1994,-82 1994,-80 1715,-80"/>
<polygon fill="#000000" stroke="transparent" points="1715,-78 1715,-80 1994,-80 1994,-78 1715,-78"/>
<text text-anchor="start" x="1718.5" y="-64.8" font-family="arial" font-size="14.00">i2cBus:3:SDA</text>
<text text-anchor="start" x="1808" y="-64.8" font-family="arial" font-size="14.00"> &#160;&#160;&#160;&#160;3:WH &#160;&#160;&#160;</text>
<text text-anchor="start" x="1882.5" y="-64.8" font-family="arial" font-size="14.00">bodyServo:4:SDA</text>
<polygon fill="#000000" stroke="transparent" points="1715,-57 1715,-59 1994,-59 1994,-57 1715,-57"/>
<polygon fill="#ffffff" stroke="transparent" points="1715,-55 1715,-57 1994,-57 1994,-55 1715,-55"/>
<polygon fill="#000000" stroke="transparent" points="1715,-53 1715,-55 1994,-55 1994,-53 1715,-53"/>
<text text-anchor="start" x="1717" y="-39.8" font-family="arial" font-size="14.00">i2cBus:4:GND</text>
<text text-anchor="start" x="1808.5" y="-39.8" font-family="arial" font-size="14.00"> &#160;&#160;&#160;&#160;4:OG &#160;&#160;&#160;</text>
<text text-anchor="start" x="1881" y="-39.8" font-family="arial" font-size="14.00">bodyServo:1:GND</text>
<polygon fill="#000000" stroke="transparent" points="1715,-32 1715,-34 1994,-34 1994,-32 1715,-32"/>
<polygon fill="#ff8000" stroke="transparent" points="1715,-30 1715,-32 1994,-32 1994,-30 1715,-30"/>
<polygon fill="#000000" stroke="transparent" points="1715,-28 1715,-30 1994,-30 1994,-28 1715,-28"/>
<text text-anchor="start" x="1758.5" y="-14.8" font-family="arial" font-size="14.00"> </text>
</g>
<!-- i2cBus&#45;&#45;w_i2c_3 -->
<g id="edge13" class="edge">
<title>i2cBus:e&#45;&#45;w_i2c_3:w</title>
<path fill="none" stroke="#000000" stroke-width="2" d="M1568,-205C1644.92,-207.23 1633.11,-106.23 1714,-104"/>
<path fill="none" stroke="#ff0000" stroke-width="2" d="M1568,-207C1646.9,-207 1635.1,-106 1714,-106"/>
<path fill="none" stroke="#000000" stroke-width="2" d="M1568,-209C1648.89,-206.77 1637.08,-105.77 1714,-108"/>
</g>
<!-- i2cBus&#45;&#45;w_i2c_3 -->
<g id="edge15" class="edge">
<title>i2cBus:e&#45;&#45;w_i2c_3:w</title>
<path fill="none" stroke="#000000" stroke-width="2" d="M1568,-181C1645.17,-183.24 1632.86,-81.24 1714,-79"/>
<path fill="none" stroke="#ff8000" stroke-width="2" d="M1568,-183C1647.16,-183 1634.84,-81 1714,-81"/>
<path fill="none" stroke="#000000" stroke-width="2" d="M1568,-185C1649.14,-182.76 1636.83,-80.76 1714,-83"/>
</g>
<!-- i2cBus&#45;&#45;w_i2c_3 -->
<g id="edge17" class="edge">
<title>i2cBus:e&#45;&#45;w_i2c_3:w</title>
<path fill="none" stroke="#000000" stroke-width="2" d="M1568,-158C1645.68,-160.25 1632.35,-56.25 1714,-54"/>
<path fill="none" stroke="#ffffff" stroke-width="2" d="M1568,-160C1647.67,-160 1634.33,-56 1714,-56"/>
<path fill="none" stroke="#000000" stroke-width="2" d="M1568,-162C1649.65,-159.75 1636.32,-55.75 1714,-58"/>
</g>
<!-- i2cBus&#45;&#45;w_i2c_3 -->
<g id="edge19" class="edge">
<title>i2cBus:e&#45;&#45;w_i2c_3:w</title>
<path fill="none" stroke="#000000" stroke-width="2" d="M1568,-135C1646.21,-137.27 1631.83,-31.27 1714,-29"/>
<path fill="none" stroke="#ff8000" stroke-width="2" d="M1568,-137C1648.19,-137 1633.81,-31 1714,-31"/>
<path fill="none" stroke="#000000" stroke-width="2" d="M1568,-139C1650.17,-136.73 1635.79,-30.73 1714,-33"/>
</g>
<!-- domeServo -->
<g id="node3" class="node">
<title>domeServo</title>
<polygon fill="#ffffff" stroke="black" points="2284,-392 2140,-392 2140,-208 2284,-208 2284,-392"/>
<polygon fill="none" stroke="black" points="2140,-369 2140,-392 2284,-392 2284,-369 2140,-369"/>
<text text-anchor="start" x="2177" y="-376.8" font-family="arial" font-size="14.00">domeServo</text>
<polygon fill="none" stroke="black" points="2140,-346 2140,-369 2206,-369 2206,-346 2140,-346"/>
<text text-anchor="start" x="2144" y="-353.8" font-family="arial" font-size="14.00">PCA9685</text>
<polygon fill="none" stroke="black" points="2206,-346 2206,-369 2245,-369 2245,-346 2206,-346"/>
<text text-anchor="start" x="2210" y="-353.8" font-family="arial" font-size="14.00">male</text>
<polygon fill="none" stroke="black" points="2245,-346 2245,-369 2284,-369 2284,-346 2245,-346"/>
<text text-anchor="start" x="2249" y="-353.8" font-family="arial" font-size="14.00">6&#45;pin</text>
<polygon fill="none" stroke="black" points="2140,-323 2140,-346 2201,-346 2201,-323 2140,-323"/>
<text text-anchor="start" x="2166.5" y="-330.8" font-family="arial" font-size="14.00">1</text>
<polygon fill="none" stroke="black" points="2201,-323 2201,-346 2284,-346 2284,-323 2201,-323"/>
<text text-anchor="start" x="2227" y="-330.8" font-family="arial" font-size="14.00">GND</text>
<polygon fill="none" stroke="black" points="2140,-300 2140,-323 2201,-323 2201,-300 2140,-300"/>
<text text-anchor="start" x="2166.5" y="-307.8" font-family="arial" font-size="14.00">2</text>
<polygon fill="none" stroke="black" points="2201,-300 2201,-323 2284,-323 2284,-300 2201,-300"/>
<text text-anchor="start" x="2232" y="-307.8" font-family="arial" font-size="14.00">OE</text>
<polygon fill="none" stroke="black" points="2140,-277 2140,-300 2201,-300 2201,-277 2140,-277"/>
<text text-anchor="start" x="2166.5" y="-284.8" font-family="arial" font-size="14.00">3</text>
<polygon fill="none" stroke="black" points="2201,-277 2201,-300 2284,-300 2284,-277 2201,-277"/>
<text text-anchor="start" x="2229" y="-284.8" font-family="arial" font-size="14.00">SCL</text>
<polygon fill="none" stroke="black" points="2140,-254 2140,-277 2201,-277 2201,-254 2140,-254"/>
<text text-anchor="start" x="2166.5" y="-261.8" font-family="arial" font-size="14.00">4</text>
<polygon fill="none" stroke="black" points="2201,-254 2201,-277 2284,-277 2284,-254 2201,-254"/>
<text text-anchor="start" x="2228.5" y="-261.8" font-family="arial" font-size="14.00">SDA</text>
<polygon fill="none" stroke="black" points="2140,-231 2140,-254 2201,-254 2201,-231 2140,-231"/>
<text text-anchor="start" x="2166.5" y="-238.8" font-family="arial" font-size="14.00">5</text>
<polygon fill="none" stroke="black" points="2201,-231 2201,-254 2284,-254 2284,-231 2201,-231"/>
<text text-anchor="start" x="2228" y="-238.8" font-family="arial" font-size="14.00">VCC</text>
<polygon fill="none" stroke="black" points="2140,-208 2140,-231 2201,-231 2201,-208 2140,-208"/>
<text text-anchor="start" x="2166.5" y="-215.8" font-family="arial" font-size="14.00">6</text>
<polygon fill="none" stroke="black" points="2201,-208 2201,-231 2284,-231 2284,-208 2201,-208"/>
<text text-anchor="start" x="2233.5" y="-215.8" font-family="arial" font-size="14.00">V+</text>
</g>
<!-- bodyServo -->
<g id="node4" class="node">
<title>bodyServo</title>
<polygon fill="#ffffff" stroke="black" points="2284,-184 2140,-184 2140,0 2284,0 2284,-184"/>
<polygon fill="none" stroke="black" points="2140,-161 2140,-184 2284,-184 2284,-161 2140,-161"/>
<text text-anchor="start" x="2179.5" y="-168.8" font-family="arial" font-size="14.00">bodyServo</text>
<polygon fill="none" stroke="black" points="2140,-138 2140,-161 2206,-161 2206,-138 2140,-138"/>
<text text-anchor="start" x="2144" y="-145.8" font-family="arial" font-size="14.00">PCA9685</text>
<polygon fill="none" stroke="black" points="2206,-138 2206,-161 2245,-161 2245,-138 2206,-138"/>
<text text-anchor="start" x="2210" y="-145.8" font-family="arial" font-size="14.00">male</text>
<polygon fill="none" stroke="black" points="2245,-138 2245,-161 2284,-161 2284,-138 2245,-138"/>
<text text-anchor="start" x="2249" y="-145.8" font-family="arial" font-size="14.00">6&#45;pin</text>
<polygon fill="none" stroke="black" points="2140,-115 2140,-138 2201,-138 2201,-115 2140,-115"/>
<text text-anchor="start" x="2166.5" y="-122.8" font-family="arial" font-size="14.00">1</text>
<polygon fill="none" stroke="black" points="2201,-115 2201,-138 2284,-138 2284,-115 2201,-115"/>
<text text-anchor="start" x="2227" y="-122.8" font-family="arial" font-size="14.00">GND</text>
<polygon fill="none" stroke="black" points="2140,-92 2140,-115 2201,-115 2201,-92 2140,-92"/>
<text text-anchor="start" x="2166.5" y="-99.8" font-family="arial" font-size="14.00">2</text>
<polygon fill="none" stroke="black" points="2201,-92 2201,-115 2284,-115 2284,-92 2201,-92"/>
<text text-anchor="start" x="2232" y="-99.8" font-family="arial" font-size="14.00">OE</text>
<polygon fill="none" stroke="black" points="2140,-69 2140,-92 2201,-92 2201,-69 2140,-69"/>
<text text-anchor="start" x="2166.5" y="-76.8" font-family="arial" font-size="14.00">3</text>
<polygon fill="none" stroke="black" points="2201,-69 2201,-92 2284,-92 2284,-69 2201,-69"/>
<text text-anchor="start" x="2229" y="-76.8" font-family="arial" font-size="14.00">SCL</text>
<polygon fill="none" stroke="black" points="2140,-46 2140,-69 2201,-69 2201,-46 2140,-46"/>
<text text-anchor="start" x="2166.5" y="-53.8" font-family="arial" font-size="14.00">4</text>
<polygon fill="none" stroke="black" points="2201,-46 2201,-69 2284,-69 2284,-46 2201,-46"/>
<text text-anchor="start" x="2228.5" y="-53.8" font-family="arial" font-size="14.00">SDA</text>
<polygon fill="none" stroke="black" points="2140,-23 2140,-46 2201,-46 2201,-23 2140,-23"/>
<text text-anchor="start" x="2166.5" y="-30.8" font-family="arial" font-size="14.00">5</text>
<polygon fill="none" stroke="black" points="2201,-23 2201,-46 2284,-46 2284,-23 2201,-23"/>
<text text-anchor="start" x="2228" y="-30.8" font-family="arial" font-size="14.00">VCC</text>
<polygon fill="none" stroke="black" points="2140,0 2140,-23 2201,-23 2201,0 2140,0"/>
<text text-anchor="start" x="2166.5" y="-7.8" font-family="arial" font-size="14.00">6</text>
<polygon fill="none" stroke="black" points="2201,0 2201,-23 2284,-23 2284,0 2201,0"/>
<text text-anchor="start" x="2233.5" y="-7.8" font-family="arial" font-size="14.00">V+</text>
</g>
<!-- JumperR8 -->
<g id="node5" class="node">
<title>JumperR8</title>
<polygon fill="#ffffff" stroke="black" points="150,-264.5 0,-264.5 0,-103.5 150,-103.5 150,-264.5"/>
<polygon fill="none" stroke="black" points="0,-241 0,-264 150,-264 150,-241 0,-241"/>
<text text-anchor="start" x="43" y="-248.8" font-family="arial" font-size="14.00">JumperR8</text>
<polygon fill="none" stroke="black" points="0,-218 0,-241 72,-241 72,-218 0,-218"/>
<text text-anchor="start" x="4" y="-225.8" font-family="arial" font-size="14.00">JumperR8</text>
<polygon fill="none" stroke="black" points="72,-218 72,-241 111,-241 111,-218 72,-218"/>
<text text-anchor="start" x="76" y="-225.8" font-family="arial" font-size="14.00">male</text>
<polygon fill="none" stroke="black" points="111,-218 111,-241 150,-241 150,-218 111,-218"/>
<text text-anchor="start" x="115" y="-225.8" font-family="arial" font-size="14.00">5&#45;pin</text>
<polygon fill="none" stroke="black" points="0,-195 0,-218 85,-218 85,-195 0,-195"/>
<text text-anchor="start" x="28.5" y="-202.8" font-family="arial" font-size="14.00">CH1</text>
<polygon fill="none" stroke="black" points="85,-195 85,-218 150,-218 150,-195 85,-195"/>
<text text-anchor="start" x="113.5" y="-202.8" font-family="arial" font-size="14.00">1</text>
<polygon fill="none" stroke="black" points="0,-172 0,-195 85,-195 85,-172 0,-172"/>
<text text-anchor="start" x="28.5" y="-179.8" font-family="arial" font-size="14.00">CH2</text>
<polygon fill="none" stroke="black" points="85,-172 85,-195 150,-195 150,-172 85,-172"/>
<text text-anchor="start" x="113.5" y="-179.8" font-family="arial" font-size="14.00">2</text>
<polygon fill="none" stroke="black" points="0,-149 0,-172 85,-172 85,-149 0,-149"/>
<text text-anchor="start" x="28.5" y="-156.8" font-family="arial" font-size="14.00">CH3</text>
<polygon fill="none" stroke="black" points="85,-149 85,-172 150,-172 150,-149 85,-149"/>
<text text-anchor="start" x="113.5" y="-156.8" font-family="arial" font-size="14.00">3</text>
<polygon fill="none" stroke="black" points="0,-126 0,-149 85,-149 85,-126 0,-126"/>
<text text-anchor="start" x="28.5" y="-133.8" font-family="arial" font-size="14.00">CH4</text>
<polygon fill="none" stroke="black" points="85,-126 85,-149 150,-149 150,-126 85,-126"/>
<text text-anchor="start" x="113.5" y="-133.8" font-family="arial" font-size="14.00">4</text>
<polygon fill="none" stroke="black" points="0,-103 0,-126 85,-126 85,-103 0,-103"/>
<text text-anchor="start" x="28.5" y="-110.8" font-family="arial" font-size="14.00">CH5</text>
<polygon fill="none" stroke="black" points="85,-103 85,-126 150,-126 150,-103 85,-103"/>
<text text-anchor="start" x="113.5" y="-110.8" font-family="arial" font-size="14.00">5</text>
</g>
<!-- rc_arduino -->
<g id="node9" class="node">
<title>rc_arduino</title>
<polygon fill="#ffffff" stroke="black" points="555,-225 294,-225 294,-91 555,-91 555,-225"/>
<polygon fill="none" stroke="black" points="294.5,-202 294.5,-225 555.5,-225 555.5,-202 294.5,-202"/>
<text text-anchor="start" x="393" y="-209.8" font-family="arial" font-size="14.00">rc_arduino</text>
<polygon fill="none" stroke="black" points="294.5,-179 294.5,-202 555.5,-202 555.5,-179 294.5,-179"/>
<text text-anchor="start" x="417.5" y="-186.8" font-family="arial" font-size="14.00">2x</text>
<text text-anchor="start" x="347.5" y="-165.8" font-family="arial" font-size="14.00"> </text>
<text text-anchor="start" x="296.5" y="-146.8" font-family="arial" font-size="14.00">JumperR8:4:CH4</text>
<text text-anchor="start" x="409.5" y="-146.8" font-family="arial" font-size="14.00"> &#160;&#160;&#160;&#160;1:VI &#160;&#160;&#160;</text>
<text text-anchor="start" x="474.5" y="-146.8" font-family="arial" font-size="14.00">Arduino:3:A3</text>
<polygon fill="#000000" stroke="transparent" points="294.5,-139 294.5,-141 555.5,-141 555.5,-139 294.5,-139"/>
<polygon fill="#ffffff" stroke="transparent" points="294.5,-137 294.5,-139 555.5,-139 555.5,-137 294.5,-137"/>
<polygon fill="#000000" stroke="transparent" points="294.5,-135 294.5,-137 555.5,-137 555.5,-135 294.5,-135"/>
<text text-anchor="start" x="296.5" y="-121.8" font-family="arial" font-size="14.00">JumperR8:5:CH5</text>
<text text-anchor="start" x="406.5" y="-121.8" font-family="arial" font-size="14.00"> &#160;&#160;&#160;&#160;2:BR &#160;&#160;&#160;</text>
<text text-anchor="start" x="474.5" y="-121.8" font-family="arial" font-size="14.00">Arduino:4:A4</text>
<polygon fill="#000000" stroke="transparent" points="294.5,-114 294.5,-116 555.5,-116 555.5,-114 294.5,-114"/>
<polygon fill="#ffffff" stroke="transparent" points="294.5,-112 294.5,-114 555.5,-114 555.5,-112 294.5,-112"/>
<polygon fill="#000000" stroke="transparent" points="294.5,-110 294.5,-112 555.5,-112 555.5,-110 294.5,-110"/>
<text text-anchor="start" x="347.5" y="-96.8" font-family="arial" font-size="14.00"> </text>
</g>
<!-- JumperR8&#45;&#45;rc_arduino -->
<g id="edge21" class="edge">
<title>JumperR8:e&#45;&#45;rc_arduino:w</title>
<path fill="none" stroke="#000000" stroke-width="2" d="M150,-135C214.13,-135 230.12,-136 294,-136"/>
<path fill="none" stroke="#ffffff" stroke-width="2" d="M150,-137C214,-137 230,-138 294,-138"/>
<path fill="none" stroke="#000000" stroke-width="2" d="M150,-139C213.88,-139 229.87,-140 294,-140"/>
</g>
<!-- JumperR8&#45;&#45;rc_arduino -->
<g id="edge23" class="edge">
<title>JumperR8:e&#45;&#45;rc_arduino:w</title>
<path fill="none" stroke="#000000" stroke-width="2" d="M150,-112C213.88,-112 229.87,-111 294,-111"/>
<path fill="none" stroke="#ffffff" stroke-width="2" d="M150,-114C214,-114 230,-113 294,-113"/>
<path fill="none" stroke="#000000" stroke-width="2" d="M150,-116C214.13,-116 230.12,-115 294,-115"/>
</g>
<!-- w_i2c_1&#45;&#45;i2cBus -->
<g id="edge2" class="edge">
<title>w_i2c_1:e&#45;&#45;i2cBus:w</title>
<path fill="none" stroke="#000000" stroke-width="2" d="M1242,-182C1305.88,-182 1321.87,-181 1386,-181"/>
<path fill="none" stroke="#ff8000" stroke-width="2" d="M1242,-184C1306,-184 1322,-183 1386,-183"/>
<path fill="none" stroke="#000000" stroke-width="2" d="M1242,-186C1306.13,-186 1322.12,-185 1386,-185"/>
</g>
<!-- w_i2c_1&#45;&#45;i2cBus -->
<g id="edge4" class="edge">
<title>w_i2c_1:e&#45;&#45;i2cBus:w</title>
<path fill="none" stroke="#000000" stroke-width="2" d="M1242,-157C1306.13,-157 1322.12,-158 1386,-158"/>
<path fill="none" stroke="#ffffff" stroke-width="2" d="M1242,-159C1306,-159 1322,-160 1386,-160"/>
<path fill="none" stroke="#000000" stroke-width="2" d="M1242,-161C1305.88,-161 1321.87,-162 1386,-162"/>
</g>
<!-- w_i2c_2&#45;&#45;domeServo -->
<g id="edge6" class="edge">
<title>w_i2c_2:e&#45;&#45;domeServo:w</title>
<path fill="none" stroke="#000000" stroke-width="2" d="M1996,-312C2070.68,-314.2 2061.34,-219.2 2140,-217"/>
<path fill="none" stroke="#ff0000" stroke-width="2" d="M1996,-314C2072.67,-314 2063.33,-219 2140,-219"/>
<path fill="none" stroke="#000000" stroke-width="2" d="M1996,-316C2074.66,-313.8 2065.32,-218.8 2140,-221"/>
</g>
<!-- w_i2c_2&#45;&#45;domeServo -->
<g id="edge8" class="edge">
<title>w_i2c_2:e&#45;&#45;domeServo:w</title>
<path fill="none" stroke="#000000" stroke-width="2" d="M1996,-287C2059.88,-287 2075.87,-286 2140,-286"/>
<path fill="none" stroke="#ff8000" stroke-width="2" d="M1996,-289C2060,-289 2076,-288 2140,-288"/>
<path fill="none" stroke="#000000" stroke-width="2" d="M1996,-291C2060.13,-291 2076.12,-290 2140,-290"/>
</g>
<!-- w_i2c_2&#45;&#45;domeServo -->
<g id="edge10" class="edge">
<title>w_i2c_2:e&#45;&#45;domeServo:w</title>
<path fill="none" stroke="#000000" stroke-width="2" d="M1996,-262C2060.13,-262 2076.12,-263 2140,-263"/>
<path fill="none" stroke="#ffffff" stroke-width="2" d="M1996,-264C2060,-264 2076,-265 2140,-265"/>
<path fill="none" stroke="#000000" stroke-width="2" d="M1996,-266C2059.88,-266 2075.87,-267 2140,-267"/>
</g>
<!-- w_i2c_2&#45;&#45;domeServo -->
<g id="edge12" class="edge">
<title>w_i2c_2:e&#45;&#45;domeServo:w</title>
<path fill="none" stroke="#000000" stroke-width="2" d="M1996,-237C2074.91,-239.2 2065.07,-335.2 2140,-333"/>
<path fill="none" stroke="#ff8000" stroke-width="2" d="M1996,-239C2072.92,-239 2063.08,-335 2140,-335"/>
<path fill="none" stroke="#000000" stroke-width="2" d="M1996,-241C2070.93,-238.8 2061.09,-334.8 2140,-337"/>
</g>
<!-- w_i2c_3&#45;&#45;bodyServo -->
<g id="edge14" class="edge">
<title>w_i2c_3:e&#45;&#45;bodyServo:w</title>
<path fill="none" stroke="#000000" stroke-width="2" d="M1995,-104C2070.05,-106.19 2060.96,-11.19 2140,-9"/>
<path fill="none" stroke="#ff0000" stroke-width="2" d="M1995,-106C2072.04,-106 2062.96,-11 2140,-11"/>
<path fill="none" stroke="#000000" stroke-width="2" d="M1995,-108C2074.04,-105.81 2064.95,-10.81 2140,-13"/>
</g>
<!-- w_i2c_3&#45;&#45;bodyServo -->
<g id="edge16" class="edge">
<title>w_i2c_3:e&#45;&#45;bodyServo:w</title>
<path fill="none" stroke="#000000" stroke-width="2" d="M1995,-79C2059.32,-79 2075.43,-78 2140,-78"/>
<path fill="none" stroke="#ff8000" stroke-width="2" d="M1995,-81C2059.45,-81 2075.55,-80 2140,-80"/>
<path fill="none" stroke="#000000" stroke-width="2" d="M1995,-83C2059.57,-83 2075.68,-82 2140,-82"/>
</g>
<!-- w_i2c_3&#45;&#45;bodyServo -->
<g id="edge18" class="edge">
<title>w_i2c_3:e&#45;&#45;bodyServo:w</title>
<path fill="none" stroke="#000000" stroke-width="2" d="M1995,-54C2059.57,-54 2075.68,-55 2140,-55"/>
<path fill="none" stroke="#ffffff" stroke-width="2" d="M1995,-56C2059.45,-56 2075.55,-57 2140,-57"/>
<path fill="none" stroke="#000000" stroke-width="2" d="M1995,-58C2059.32,-58 2075.43,-59 2140,-59"/>
</g>
<!-- w_i2c_3&#45;&#45;bodyServo -->
<g id="edge20" class="edge">
<title>w_i2c_3:e&#45;&#45;bodyServo:w</title>
<path fill="none" stroke="#000000" stroke-width="2" d="M1995,-29C2074.28,-31.2 2064.7,-127.2 2140,-125"/>
<path fill="none" stroke="#ff8000" stroke-width="2" d="M1995,-31C2072.29,-31 2062.71,-127 2140,-127"/>
<path fill="none" stroke="#000000" stroke-width="2" d="M1995,-33C2070.3,-30.8 2060.72,-126.8 2140,-129"/>
</g>
<!-- rc_arduino&#45;&#45;Arduino -->
<g id="edge22" class="edge">
<title>rc_arduino:e&#45;&#45;Arduino:w</title>
<path fill="none" stroke="#000000" stroke-width="2" d="M555,-136C618.88,-136 634.87,-135 699,-135"/>
<path fill="none" stroke="#ffffff" stroke-width="2" d="M555,-138C619,-138 635,-137 699,-137"/>
<path fill="none" stroke="#000000" stroke-width="2" d="M555,-140C619.13,-140 635.12,-139 699,-139"/>
</g>
<!-- rc_arduino&#45;&#45;Arduino -->
<g id="edge24" class="edge">
<title>rc_arduino:e&#45;&#45;Arduino:w</title>
<path fill="none" stroke="#000000" stroke-width="2" d="M555,-111C619.13,-111 635.12,-112 699,-112"/>
<path fill="none" stroke="#ffffff" stroke-width="2" d="M555,-113C619,-113 635,-114 699,-114"/>
<path fill="none" stroke="#000000" stroke-width="2" d="M555,-115C618.88,-115 634.87,-116 699,-116"/>
</g>
</g>
</svg>
